<svg xmlns="http://www.w3.org/2000/svg" width="231.791" height="72.927" viewBox="0 0 231.791 72.927">
  <g id="Grupo_1" data-name="Grupo 1" transform="translate(0 -0.003)">
    <g id="PT">
      <path id="Caminho_1" data-name="Caminho 1" d="M70.85,28.44l.66-1.76h1.18V14.5H70.85V12.77h5.66l-.66,1.73H74.67V26.68h1.84v1.76Z" fill="#303336"/>
      <path id="Caminho_2" data-name="Caminho 2" d="M77.41,30.44c0-1.52.86-2.48,2.57-2.9a1.73,1.73,0,0,1-1-1.65,2.44,2.44,0,0,1,1.43-2.06,3.51,3.51,0,0,1-2-3.31c0-2.75,1.71-4.07,4.39-4.07a5.16,5.16,0,0,1,1.6.22h4.06l-.57,1.5H86.28A3.71,3.71,0,0,1,87,20.45c0,2.44-1.78,3.78-4.33,3.78a5.2,5.2,0,0,1-.92-.07,1.68,1.68,0,0,0-1.08,1.43c0,.59.6.9,1.74.9h2c2.38,0,3.85,1.07,3.85,3.18,0,2.7-2,4-6.06,4C79.43,33.71,77.41,32.76,77.41,30.44Zm9-.59a1.39,1.39,0,0,0-.52-1.28,4.67,4.67,0,0,0-2.13-.33h-2c-1.65,0-2.46.71-2.46,2.13,0,1.23,1,1.87,2.9,1.87,2.8,0,4.19-.79,4.19-2.39Zm-1.32-9.42c0-1.71-.81-2.57-2.41-2.57s-2.41.88-2.41,2.59a2.41,2.41,0,1,0,4.82,0Z" fill="#303336"/>
      <path id="Caminho_3" data-name="Caminho 3" d="M97.13,16.59l-.24,1.77a6.78,6.78,0,0,0-1.28-.15c-1.82,0-3.42,1.58-3.42,3.95v6.28H90.26V16.67h1.58l.22,2.15h.08a4.25,4.25,0,0,1,3.6-2.37,7,7,0,0,1,1.39.14Z" fill="#303336"/>
      <path id="Caminho_4" data-name="Caminho 4" d="M107.4,21.77v1.16H99.35c.06,2.66,1.4,4.08,3.75,4.08a9.47,9.47,0,0,0,3.23-.57l.55,1.45a8.8,8.8,0,0,1-3.87.77c-3.36,0-5.66-2.09-5.66-6s2.08-6.19,5.2-6.19S107.4,18.56,107.4,21.77Zm-8-.38h6c0-2-.9-3.36-2.85-3.36s-2.96,1.26-3.16,3.36Z" fill="#303336"/>
      <path id="Caminho_5" data-name="Caminho 5" d="M108,32.11c1.25-.57,1.54-1.41,1.54-3.49V16.67h1.93V28.73c0,2.3-.62,4.12-2.86,5Zm2.52-19.85a1.09,1.09,0,0,1,1.12,1.23,1.13,1.13,0,1,1-2.26,0,1.09,1.09,0,0,1,1.18-1.23Z" fill="#303336"/>
      <path id="Caminho_6" data-name="Caminho 6" d="M123,20.43v8h-1.4l-.38-1.67h-.08a4.34,4.34,0,0,1-4,1.89c-2.13,0-3.71-1.1-3.71-3.49s1.8-3.64,5.64-3.75l2-.07v-.7c0-2-.9-2.62-2.44-2.62a7.79,7.79,0,0,0-3.32.9l-.59-1.44a8.79,8.79,0,0,1,4-1C121.67,16.48,123,17.68,123,20.43Zm-3.64,2.32c-2.94.11-3.89.95-3.89,2.44,0,1.32.88,1.91,2.15,1.91a3.14,3.14,0,0,0,3.47-3.36v-1Z" fill="#303336"/>
      <path id="Caminho_7" data-name="Caminho 7" d="M139.72,23.59H133.5l-1.86,4.85h-2l6.13-15.74h1.77l6.11,15.74h-2Zm-2.35-6.5c-.13-.35-.59-1.8-.75-2.35-.22.9-.5,1.85-.68,2.35l-1.78,4.74h5Z" fill="#303336"/>
      <path id="Caminho_8" data-name="Caminho 8" d="M144,22.58c0-4,1.93-6.13,4.85-6.13a4.27,4.27,0,0,1,3.65,1.74h.13c-.05-.38-.13-1.3-.13-1.74V12.5l1.93-.74V28.44h-1.56l-.29-1.58h-.08a4.19,4.19,0,0,1-3.67,1.8C145.93,28.66,144,26.62,144,22.58Zm8.52.37V22.6c0-2.92-.79-4.54-3.4-4.54-2.09,0-3.12,1.77-3.12,4.56s1,4.44,3.14,4.44c2.5,0,3.4-1.36,3.4-4.06Z" fill="#303336"/>
      <path id="Caminho_9" data-name="Caminho 9" d="M156.05,16.67h2.07l2.5,6.94a24.936,24.936,0,0,1,.94,3.12h.09a30.539,30.539,0,0,1,1-3.12l2.5-6.94h2.06l-4.47,11.77h-2.22Z" fill="#303336"/>
      <path id="Caminho_10" data-name="Caminho 10" d="M178,21.77v1.16h-8.1c.07,2.66,1.41,4.08,3.76,4.08a9.47,9.47,0,0,0,3.23-.57l.54,1.45a8.72,8.72,0,0,1-3.86.77c-3.36,0-5.66-2.09-5.66-6s2.08-6.19,5.2-6.19S178,18.56,178,21.77Zm-8-.38h6c0-2-.9-3.36-2.85-3.36s-3,1.26-3.15,3.36Z" fill="#303336"/>
      <path id="Caminho_11" data-name="Caminho 11" d="M190,20.78v7.66h-1.91V20.91c0-1.89-.83-2.83-2.63-2.83-2.62,0-3.45,1.51-3.45,4.26v6.1h-1.93V16.67h1.56l.28,1.61H182a4.28,4.28,0,0,1,3.71-1.83C188.52,16.45,190,17.75,190,20.78Z" fill="#303336"/>
      <path id="Caminho_12" data-name="Caminho 12" d="M197.83,26.79l.53,1.39a4.5,4.5,0,0,1-2.15.48c-1.85,0-3.45-.79-3.45-3.64V14.7l1.93-.73v2.7h3.4v1.5h-3.4V25c0,1.43.77,2.11,1.84,2.11A3.37,3.37,0,0,0,197.83,26.79Z" fill="#303336"/>
      <path id="Caminho_13" data-name="Caminho 13" d="M202.64,13.49a1.13,1.13,0,1,1-1.13-1.13,1.13,1.13,0,0,1,1.13,1.13Zm-.18,15h-1.93V16.67h1.93Z" fill="#303336"/>
      <path id="Caminho_14" data-name="Caminho 14" d="M208.72,28.66a7.51,7.51,0,0,1-3.69-.75l.57-1.49a8.83,8.83,0,0,0,3.16.68c2,0,2.79-.68,2.79-1.73,0-.88-.59-1.41-2.9-2.29S205,21.5,205,19.57s1.78-3.12,4.41-3.12a9.24,9.24,0,0,1,3.76.79l-.6,1.56a8.39,8.39,0,0,0-3.29-.77c-1.58,0-2.44.55-2.44,1.43s.77,1.38,3,2.24,3.54,1.6,3.54,3.49C213.42,27.47,211.59,28.66,208.72,28.66Z" fill="#303336"/>
      <path id="Caminho_15" data-name="Caminho 15" d="M220.86,26.79l.53,1.39a4.54,4.54,0,0,1-2.16.48c-1.84,0-3.44-.79-3.44-3.64V14.7l1.93-.73v2.7h3.4v1.5h-3.4V25c0,1.43.77,2.11,1.84,2.11a3.37,3.37,0,0,0,1.3-.32Z" fill="#303336"/>
      <path id="Caminho_16" data-name="Caminho 16" d="M231.79,20.43v8h-1.4L230,26.77h-.08a4.35,4.35,0,0,1-4,1.89c-2.13,0-3.71-1.1-3.71-3.49s1.8-3.64,5.65-3.75l2-.07v-.7c0-2-.9-2.62-2.43-2.62a7.79,7.79,0,0,0-3.32.9l-.59-1.44a8.79,8.79,0,0,1,4-1C230.43,16.48,231.79,17.68,231.79,20.43Zm-3.64,2.32c-2.94.11-3.89.95-3.89,2.44,0,1.32.88,1.91,2.15,1.91a3.14,3.14,0,0,0,3.47-3.36v-1Z" fill="#303336"/>
      <path id="Caminho_17" data-name="Caminho 17" d="M70.74,46.12c0-4,1.93-6.12,4.85-6.12a4.29,4.29,0,0,1,3.65,1.73h.13c-.05-.37-.13-1.29-.13-1.73V36l1.93-.75V52H79.61l-.29-1.58h-.08a4.19,4.19,0,0,1-3.67,1.8C72.65,52.2,70.74,50.16,70.74,46.12Zm8.52.38v-.36c0-2.92-.79-4.54-3.41-4.54-2.08,0-3.11,1.78-3.11,4.57s1,4.43,3.14,4.43c2.48,0,3.38-1.36,3.38-4.1Z" fill="#303336"/>
      <path id="Caminho_18" data-name="Caminho 18" d="M88.54,52.2c-3.11,0-5.4-2.21-5.4-6.12S85.23,40,88.61,40C91.79,40,94,42.19,94,46.08S91.9,52.2,88.54,52.2Zm0-1.6C91,50.6,92,48.87,92,46.08s-1-4.46-3.43-4.46-3.43,1.67-3.43,4.46,1.06,4.52,3.45,4.52Z" fill="#303336"/>
      <path id="Caminho_19" data-name="Caminho 19" d="M106.35,52.2a10.45,10.45,0,0,1-4.3-.74l.61-1.63a10.08,10.08,0,0,0,3.78.66c2.32,0,3.53-1,3.53-2.52s-.86-2.2-3.69-3.23-4-2.22-4-4.65,2-4,5-4a10.43,10.43,0,0,1,4.32.88l-.63,1.69a9.73,9.73,0,0,0-3.74-.84c-2,0-3,.93-3,2.29,0,1.58.88,2.21,3.43,3.16,2.76,1,4.28,2.06,4.28,4.52C112,50.58,109.77,52.2,106.35,52.2Z" fill="#303336"/>
      <path id="Caminho_20" data-name="Caminho 20" d="M123.36,45.31v1.16h-8c.06,2.66,1.4,4.09,3.75,4.09a9.47,9.47,0,0,0,3.23-.57l.55,1.44a8.8,8.8,0,0,1-3.87.77c-3.36,0-5.66-2.08-5.66-6s2.08-6.19,5.2-6.19S123.36,42.1,123.36,45.31Zm-8-.37h6c0-2-.9-3.36-2.85-3.36s-2.96,1.25-3.16,3.36Zm6.1-9.55a18.74,18.74,0,0,1-3.14,3.29H117v-.26a24.759,24.759,0,0,0,2.09-3.25h2.32Z" fill="#303336"/>
      <path id="Caminho_21" data-name="Caminho 21" d="M130.5,50.34l.52,1.38a4.46,4.46,0,0,1-2.15.48c-1.84,0-3.44-.79-3.44-3.64V38.24l1.93-.72v2.7h3.4v1.49h-3.4v6.81c0,1.42.77,2.1,1.84,2.1A3.63,3.63,0,0,0,130.5,50.34Z" fill="#303336"/>
      <path id="Caminho_22" data-name="Caminho 22" d="M135.31,37a1.14,1.14,0,1,1-1.12-1.23A1.1,1.1,0,0,1,135.31,37Zm-.18,15H133.2V40.22h1.93Z" fill="#303336"/>
      <path id="Caminho_23" data-name="Caminho 23" d="M155.22,44.32V52h-1.91V44.41c0-1.84-.77-2.79-2.4-2.79-2.28,0-3.18,1.36-3.18,3.87V52h-1.91V44.41c0-1.84-.77-2.79-2.41-2.79-2.37,0-3.14,1.52-3.14,4.26V52h-1.93V40.22h1.55l.29,1.6h.11A3.89,3.89,0,0,1,143.76,40c1.8,0,3,.63,3.6,2h.11a4.23,4.23,0,0,1,3.77-2C153.9,40,155.22,41.29,155.22,44.32Z" fill="#303336"/>
      <path id="Caminho_24" data-name="Caminho 24" d="M162.73,52.2c-3.12,0-5.4-2.21-5.4-6.12S159.41,40,162.79,40c3.19,0,5.42,2.19,5.42,6.08S166.08,52.2,162.73,52.2Zm0-1.6c2.37,0,3.45-1.73,3.45-4.52s-1.08-4.46-3.47-4.46-3.43,1.67-3.43,4.46,1.1,4.52,3.49,4.52Z" fill="#303336"/>
      <path id="Caminho_25" data-name="Caminho 25" d="M181.17,52H176.8V36.31h4.83c4.72,0,7.73,2.66,7.73,7.68C189.36,49.28,186.33,52,181.17,52Zm.17-14h-2.57V50.29h2.13c4.24,0,6.37-2.1,6.37-6.23S185.12,38,181.34,38Z" fill="#303336"/>
      <path id="Caminho_26" data-name="Caminho 26" d="M193.79,37a1.13,1.13,0,1,1-1.13-1.13A1.13,1.13,0,0,1,193.79,37Zm-.17,15h-1.94V40.22h1.94Z" fill="#303336"/>
      <path id="Caminho_27" data-name="Caminho 27" d="M205.14,44v8h-1.4l-.38-1.66h-.09a4.34,4.34,0,0,1-4,1.88c-2.13,0-3.71-1.09-3.71-3.49s1.8-3.64,5.65-3.75l2-.07v-.7c0-1.95-.9-2.61-2.43-2.61a7.79,7.79,0,0,0-3.32.9l-.55-1.5a8.79,8.79,0,0,1,4-1C203.78,40,205.14,41.23,205.14,44Zm-3.64,2.3c-2.95.11-3.89.94-3.89,2.43,0,1.32.88,1.91,2.15,1.91a3.14,3.14,0,0,0,3.47-3.35V46.23Z" fill="#303336"/>
      <path id="Caminho_28" data-name="Caminho 28" d="M205.6,37a1.4,1.4,0,0,1,1.45-1.47A1.42,1.42,0,0,1,208.5,37a1.45,1.45,0,0,1-2.9,0Zm2.68,0a1.21,1.21,0,0,0-1.23-1.25A1.24,1.24,0,1,0,208.28,37Zm-1.78-.88h.5c.44,0,.63.18.63.53a.47.47,0,0,1-.3.44l.46.77h-.35l-.4-.68h-.24v.68h-.31Zm.51.81a.29.29,0,0,0,.33-.28c0-.18-.11-.26-.33-.26h-.2v.54Z" fill="#303336"/>
      <path id="Caminho_29" data-name="Caminho 29" d="M34.57,30.18c-2.35,2.35-3.49,3.47-4.07,6.32-.05.21-.29.21-.29,0V33c0-2.24,2-4.29,4.37-6.66l1.91-1.91c2.67-2.68,3.32-5.78,1.19-7.62-.17-.15-.08-.34.15-.24,2.65,1.21,4.74,5.61.2,10.15Zm-4.37,9V42.7c0,.21.24.21.29,0,.59-2.85,1.72-4,4.07-6.34l3.72-3.72c4.55-4.54,5.34-8.95,3-11.77-.16-.19-.32-.08-.22.15,1.53,3.46-2.14,7.13-3.89,8.87l-2.63,2.63c-2.34,2.35-4.34,4.4-4.34,6.63ZM20.11,27.85c-4.55,4.55-2.45,8.94.2,10.15.23.1.32-.09.15-.24-2.13-1.84-1.48-4.94,1.19-7.62l7.56-7.56c2.37-2.37,4.37-4.42,4.37-6.66V12.43c0-.21-.25-.21-.29,0-.59,2.85-1.72,4-4.07,6.32ZM33.59,9.78V6.27c0-.22-.25-.22-.29,0-.59,2.84-1.72,4-4.07,6.34L19.86,22c-4.55,4.55-5.34,9-3,11.78.16.19.32.07.22-.16-1.53-3.46,2.14-7.12,3.89-8.87l8.28-8.28C31.59,14.06,33.59,12,33.59,9.78Zm-14.72,7c-3.91,3.91-4.46,8.05-3.62,10.75.07.23.27.25.27,0,0-2.26.63-4.21,4.77-8.35l8.92-8.92c2.38-2.38,4.37-4.42,4.37-6.66V.16c0-.21-.24-.21-.29,0-.58,2.85-1.72,4-4.07,6.32Zm5.47,28.31A.14.14,0,0,1,24.2,45V43a.15.15,0,0,1,.14-.15h3.43a.14.14,0,0,0,.14-.14c0-1.82-1.38-3-6.88-2.1l-11.86,2s-9,9-9.11,9.13a.18.18,0,0,0,.16.31C.38,52.06,20,48.68,20,48.68c4.49-.76,6.94,1.38,7.68,3.38.06.18.27.15.27,0V45.29a.15.15,0,0,0-.14-.15ZM38.5,40.83l-3.92,3.93c-2.38,2.37-4.37,4.42-4.37,6.66V52c0,.17.21.2.28,0,.73-2,3.18-4.14,7.67-3.38,0,0,19.58,3.38,19.75,3.39a.18.18,0,0,0,.16-.31L49,42.63ZM42.89,27c-.07-.23-.27-.24-.27,0,0,2.26-.63,4.21-4.77,8.35l-3.27,3.27A23,23,0,0,0,31,42.83h3.23l.38-.38,4.7-4.7C43.18,33.84,43.73,29.7,42.89,27ZM30.21,48.77c0,.22.24.22.29,0a8.35,8.35,0,0,1,1.58-3.63H30.35a.14.14,0,0,0-.14.14Z" fill="#303336"/>
      <path id="Caminho_30" data-name="Caminho 30" d="M55.21,45.47A1.41,1.41,0,0,1,56.67,44a1.43,1.43,0,0,1,1.45,1.46,1.46,1.46,0,0,1-2.91,0Zm2.69,0a1.21,1.21,0,0,0-1.23-1.25,1.19,1.19,0,0,0-1.23,1.25,1.23,1.23,0,1,0,2.46,0Zm-1.77-.87h.5c.43,0,.63.17.63.51a.48.48,0,0,1-.31.46l.46.77h-.34l-.4-.69h-.24v.69h-.3Zm.49.8c.21,0,.33-.11.33-.28s-.1-.26-.33-.26h-.19v.54Z" fill="#303336"/>
    </g>
    <g id="Layer_3" data-name="Layer 3">
      <path id="Caminho_31" data-name="Caminho 31" d="M74.63,72.78H72.1V63.72h2.8c2.73,0,4.47,1.53,4.47,4.44C79.37,71.22,77.61,72.78,74.63,72.78Zm.1-8.09H73.25V71.8h1.23c2.45,0,3.68-1.22,3.68-3.6s-1.24-3.51-3.43-3.51Z" fill="#303336"/>
      <path id="Caminho_32" data-name="Caminho 32" d="M80.39,72.78l.38-1h.69v-7H80.39v-1h3.28l-.38,1H82.6v7h1.07v1Z" fill="#303336"/>
      <path id="Caminho_33" data-name="Caminho 33" d="M88.31,72.78H87.17l-3.24-9.06h1.19l2,5.81a17.469,17.469,0,0,1,.57,2,13.381,13.381,0,0,1,.57-2l2-5.79h1.21Z" fill="#303336"/>
      <path id="Caminho_34" data-name="Caminho 34" d="M91.8,72.78l.38-1h.68v-7H91.8v-1h3.27l-.38,1H94v7h1.06v1Z" fill="#303336"/>
      <path id="Caminho_35" data-name="Caminho 35" d="M98.6,72.91a6.06,6.06,0,0,1-2.49-.43l.36-.94a6,6,0,0,0,2.18.38c1.35,0,2-.56,2-1.46s-.5-1.27-2.14-1.87-2.33-1.28-2.33-2.69,1.18-2.31,2.89-2.31a6,6,0,0,1,2.5.51l-.37,1a5.52,5.52,0,0,0-2.15-.49c-1.13,0-1.72.54-1.72,1.32s.51,1.29,2,1.83,2.48,1.19,2.48,2.62C101.84,72,100.58,72.91,98.6,72.91Z" fill="#303336"/>
      <path id="Caminho_36" data-name="Caminho 36" d="M108.13,70h-3.59l-1.08,2.8h-1.15l3.54-9.1h1l3.52,9.1h-1.18Zm-2.73-8.8c.75,0,1.4.73,1.93.73s.57-.24.7-.74h.64c-.11,1-.59,1.63-1.39,1.63s-1.37-.73-1.93-.73c-.4,0-.58.24-.7.74H104C104.11,61.83,104.6,61.2,105.4,61.2Zm1.37,5c-.07-.21-.34-1-.43-1.36-.12.52-.29,1.07-.39,1.36l-1,2.74h2.87Z" fill="#303336"/>
      <path id="Caminho_37" data-name="Caminho 37" d="M114.87,72.91c-2.83,0-4.19-1.88-4.19-4.69s1.36-4.64,4.2-4.64,4.17,1.84,4.17,4.66S117.6,72.91,114.87,72.91Zm0-1c2.06,0,3-1.4,3-3.68s-.91-3.66-3-3.66-3,1.37-3,3.66.96,3.69,3,3.69Z" fill="#303336"/>
      <path id="Caminho_38" data-name="Caminho 38" d="M125.87,72.91a6.06,6.06,0,0,1-2.49-.43l.36-.94a6,6,0,0,0,2.18.38c1.35,0,2-.56,2-1.46s-.5-1.27-2.14-1.87-2.33-1.28-2.33-2.69,1.18-2.31,2.89-2.31a6,6,0,0,1,2.5.51l-.37,1a5.52,5.52,0,0,0-2.15-.49c-1.13,0-1.72.54-1.72,1.32s.51,1.29,2,1.83,2.48,1.19,2.48,2.62C129.11,72,127.85,72.91,125.87,72.91Z" fill="#303336"/>
      <path id="Caminho_39" data-name="Caminho 39" d="M137.7,69.58c0,1.88-1.13,3.33-3.53,3.33a3.11,3.11,0,0,1-3.45-3.35V63.72h1.14v5.87a2.36,2.36,0,0,0,4.71,0V63.72h1.13Z" fill="#303336"/>
      <path id="Caminho_40" data-name="Caminho 40" d="M139.83,63.72H141v8h4.18l-.38,1h-4.94Z" fill="#303336"/>
      <path id="Caminho_41" data-name="Caminho 41" d="M145.31,67.63h3.07l.38,1h-3.07Z" fill="#303336"/>
      <path id="Caminho_42" data-name="Caminho 42" d="M154.65,70h-3.59L150,72.78h-1.15l3.54-9.1h1l3.53,9.1h-1.19Zm-1.36-3.76c-.07-.21-.34-1-.43-1.36-.12.52-.29,1.07-.39,1.36l-1,2.74h2.87Z" fill="#303336"/>
      <path id="Caminho_43" data-name="Caminho 43" d="M158.93,64.83h-.05c.05.52.09,1.49.09,2.45v5.5h-1.06V63.72h1.69l2.79,7.42h.05l2.85-7.42H167v9.06h-1.13V67.21a17.884,17.884,0,0,1,.09-2.36h0l-3,7.93h-.94Z" fill="#303336"/>
      <path id="Caminho_44" data-name="Caminho 44" d="M169.17,72.78V63.72h5.06v1h-3.92v2.83h3.4v1h-3.4v3.24h4.2l-.38,1Z" fill="#303336"/>
      <path id="Caminho_45" data-name="Caminho 45" d="M181.77,66.29A2.43,2.43,0,0,1,180,68.72l2.48,4.06h-1.33L178.92,69h-1.81v3.74H176V63.72h2.5C180.72,63.72,181.77,64.57,181.77,66.29Zm-4.66-1.58v3.36h1.36c1.47,0,2.12-.58,2.12-1.73s-.7-1.63-2.18-1.63Z" fill="#303336"/>
      <path id="Caminho_46" data-name="Caminho 46" d="M182.89,72.78l.38-1H184v-7h-1.06v-1h3.27l-.38,1h-.69v7h1.07v1Z" fill="#303336"/>
      <path id="Caminho_47" data-name="Caminho 47" d="M188.41,68.25c0,2.25,1,3.66,3.12,3.66a6,6,0,0,0,2.33-.46l.33.87a5.79,5.79,0,0,1-2.83.59c-2.78,0-4.16-1.82-4.16-4.67s1.55-4.65,4.35-4.65a5.44,5.44,0,0,1,2.43.49l-.38,1a4.85,4.85,0,0,0-2.06-.5C189.6,64.59,188.41,66,188.41,68.25Z" fill="#303336"/>
      <path id="Caminho_48" data-name="Caminho 48" d="M200,70h-3.59l-1.08,2.8h-1.16l3.54-9.1h1l3.53,9.1h-1.18Zm-1.36-3.76c-.08-.21-.34-1-.43-1.36-.13.52-.29,1.07-.4,1.36l-1,2.74h2.87Z" fill="#303336"/>
      <path id="Caminho_49" data-name="Caminho 49" d="M209.13,72.78l-4.85-7.53h-.05c0,.6.1,1.54.1,2.47v5.06h-1.05V63.72h1.32l4.84,7.5h.05c0-.41-.09-1.56-.09-2.39V63.72h1.06v9.06Z" fill="#303336"/>
      <path id="Caminho_50" data-name="Caminho 50" d="M217.26,70h-3.59l-1.08,2.8h-1.15l3.54-9.1h1l3.53,9.1h-1.18Zm-1.35-3.76c-.08-.21-.35-1-.44-1.36-.12.52-.29,1.07-.39,1.36l-1,2.74h2.87Z" fill="#303336"/>
    </g>
  </g>
</svg>
