<svg width="168" height="104" viewBox="0 0 168 104" fill="none" xmlns="http://www.w3.org/2000/svg">
<path d="M0 78.9059L0.687956 77.0754H1.92523V64.3795H0V62.5725H5.91172L5.22376 64.3795H3.98649V77.0754H5.91172V78.9059H0Z" fill="#303336"/>
<path d="M6.85071 80.9897C6.85071 79.4125 7.74531 78.4046 9.5319 77.9711C8.82041 77.6291 8.45419 77.0337 8.45419 76.2555C8.45419 75.4095 8.95904 74.6992 9.94258 74.1065C8.54575 73.5346 7.81071 72.0697 7.81071 70.6518C7.81071 67.7925 9.5973 66.4189 12.3936 66.4189C13.0345 66.4189 13.5864 66.4868 14.0651 66.6487H18.3105L17.7141 68.205H16.1106C16.5919 68.8448 16.8431 69.6465 16.8431 70.5839C16.8431 73.122 14.9858 74.5191 12.3282 74.5191C11.9149 74.5191 11.5958 74.4956 11.3656 74.4512C10.6096 74.8637 10.2434 75.3651 10.2434 75.937C10.2434 76.5558 10.8633 76.8744 12.0535 76.8744H14.1383C16.6129 76.8744 18.1483 77.9946 18.1483 80.1907C18.1483 83.0056 16.04 84.4 11.8233 84.4C8.95904 84.3974 6.85071 83.413 6.85071 80.9897ZM16.2257 80.3709C16.2257 79.7076 16.0426 79.2715 15.6764 79.0444C15.2867 78.8146 14.5542 78.7023 13.453 78.7023H11.3447C9.62607 78.7023 8.77855 79.4334 8.77855 80.9219C8.77855 82.204 9.78564 82.8672 11.8024 82.8672C14.7583 82.8646 16.2257 82.0421 16.2257 80.3709ZM14.8498 70.5578C14.8498 68.7743 14.0023 67.8812 12.3282 67.8812C10.6541 67.8812 9.80656 68.7952 9.80656 70.5813C9.80656 72.2734 10.6541 73.1194 12.3491 73.1194C14.0258 73.1194 14.8498 72.2499 14.8498 70.5578Z" fill="#303336"/>
<path d="M27.4321 66.5522L27.181 68.4062C26.7912 68.3148 26.2654 68.2469 25.8521 68.2469C23.9505 68.2469 22.2763 69.8946 22.2763 72.3649V78.9087H20.2596V66.6462H21.9101L22.1403 68.8893H22.2319C23.0114 67.5393 24.2722 66.4191 25.9908 66.4191C26.4459 66.4164 27.0188 66.4608 27.4321 66.5522Z" fill="#303336"/>
<path d="M38.1569 71.9521V73.1637H29.7471C29.8151 75.9317 31.2146 77.4201 33.6656 77.4201C34.8584 77.4201 36.0721 77.1903 37.0347 76.8247L37.6076 78.334C36.3468 78.8824 35.2482 79.1357 33.574 79.1357C30.0689 79.1357 27.6623 76.9631 27.6623 72.8687C27.6623 68.8421 29.8387 66.4163 33.0927 66.4163C36.2317 66.4163 38.1569 68.6123 38.1569 71.9521ZM29.7916 71.563H36.0486C36.025 69.4819 35.1095 68.064 33.0692 68.064C31.144 68.064 29.9982 69.367 29.7916 71.563Z" fill="#303336"/>
<path d="M38.8212 82.7259C40.1265 82.1305 40.4247 81.261 40.4247 79.0884V66.6432H42.4414V79.2033C42.4414 81.6057 41.8006 83.504 39.462 84.3971L38.8212 82.7259ZM41.4553 62.0474C42.0752 62.0474 42.6245 62.4364 42.6245 63.3295C42.6245 64.199 42.0752 64.6116 41.4553 64.6116C40.7909 64.6116 40.2625 64.199 40.2625 63.3295C40.2651 62.4364 40.7909 62.0474 41.4553 62.0474Z" fill="#303336"/>
<path d="M54.4713 70.5572V78.9079H53.0039L52.6141 77.1689H52.5226C51.4449 78.5189 50.4613 79.1351 48.3974 79.1351C46.174 79.1351 44.5234 77.9914 44.5234 75.4977C44.5234 73.0509 46.4016 71.7009 50.4142 71.586L52.499 71.5181V70.7869C52.499 68.7502 51.56 68.0634 49.9565 68.0634C48.6721 68.0634 47.5055 68.5204 46.4958 69.0009L45.8758 67.4915C46.9535 66.9197 48.4655 66.4392 50.0689 66.4392C53.051 66.4392 54.4713 67.6978 54.4713 70.5572ZM50.668 72.9804C47.597 73.0953 46.6108 73.9648 46.6108 75.5185C46.6108 76.8921 47.5264 77.5083 48.8578 77.5083C50.9217 77.5083 52.4781 76.3881 52.4781 74.0092V72.9099L50.668 72.9804Z" fill="#303336"/>
<path d="M71.8871 73.8503H65.4025L63.4537 78.9057H61.3689L67.7619 62.5044H69.6192L75.9913 78.9057H73.8594L71.8871 73.8503ZM69.4361 67.0793C69.2974 66.7137 68.8161 65.2044 68.6566 64.6326C68.4264 65.57 68.1282 66.5544 67.9451 67.0793L66.0878 72.0198H71.2671L69.4361 67.0793Z" fill="#303336"/>
<path d="M76.3793 72.798C76.3793 68.5887 78.3961 66.4161 81.4435 66.4161C83.3452 66.4161 84.4909 67.2178 85.2469 68.2231H85.3855C85.3385 67.834 85.2469 66.8731 85.2469 66.4161V62.2982L87.2637 61.52V78.9057H85.6367L85.3385 77.258H85.2469C84.5145 78.3103 83.3452 79.1329 81.42 79.1329C78.3752 79.1355 76.3793 77.0073 76.3793 72.798ZM85.2731 73.1871V72.8215C85.2731 69.7794 84.4491 68.0873 81.7208 68.0873C79.5445 68.0873 78.4667 69.9413 78.4667 72.845C78.4667 75.7722 79.5445 77.4669 81.7443 77.4669C84.3314 77.4643 85.2731 76.0464 85.2731 73.1871Z" fill="#303336"/>
<path d="M88.9375 66.6428H91.0929L93.7061 73.8708C94.0723 74.8761 94.5536 76.3645 94.6922 77.1192H94.7838C94.9433 76.3645 95.4717 74.8552 95.8144 73.8708L98.4276 66.6428H100.583L95.9086 78.9053H93.5936L88.9375 66.6428Z" fill="#303336"/>
<path d="M111.81 71.9521V73.1637H103.4C103.468 75.9317 104.867 77.4201 107.318 77.4201C108.511 77.4201 109.725 77.1903 110.688 76.8247L111.26 78.334C110 78.8824 108.901 79.1357 107.227 79.1357C103.722 79.1357 101.315 76.9631 101.315 72.8687C101.315 68.8421 103.491 66.4163 106.746 66.4163C109.884 66.4163 111.81 68.6123 111.81 71.9521ZM103.444 71.563H109.701C109.678 69.4819 108.762 68.064 106.722 68.064C104.797 68.064 103.651 69.367 103.444 71.563Z" fill="#303336"/>
<path d="M124.345 70.9227V78.908H122.351V71.0611C122.351 69.0948 121.48 68.1104 119.602 68.1104C116.874 68.1104 116.005 69.6902 116.005 72.5495V78.9106H113.989V66.6481H115.616L115.914 68.3193H116.029C116.832 67.0372 118.344 66.4209 119.903 66.4209C122.833 66.4157 124.345 67.7657 124.345 70.9227Z" fill="#303336"/>
<path d="M132.548 77.19L133.097 78.6314C132.663 78.9056 131.792 79.1354 130.85 79.1354C128.925 79.1354 127.253 78.3128 127.253 75.3386V64.5855L129.27 63.8308V66.6457H132.823V68.202H129.27V75.2942C129.27 76.78 130.073 77.4903 131.196 77.4903C131.656 77.4877 132.273 77.3284 132.548 77.19Z" fill="#303336"/>
<path d="M137.568 63.3268C137.568 64.1963 137.018 64.6089 136.399 64.6089C135.734 64.6089 135.206 64.1963 135.206 63.3268C135.206 62.4338 135.734 62.0447 136.399 62.0447C137.016 62.0473 137.568 62.4364 137.568 63.3268ZM137.385 78.9056H135.368V66.6431H137.385V78.9056Z" fill="#303336"/>
<path d="M143.914 79.1357C142.195 79.1357 141.003 78.8615 140.063 78.3575L140.66 76.8012C141.463 77.1433 142.792 77.5115 143.961 77.5115C146.001 77.5115 146.872 76.8012 146.872 75.7045C146.872 74.7906 146.252 74.2396 143.849 73.3256C141.466 72.4117 140.045 71.6779 140.045 69.6647C140.045 67.5835 141.902 66.4163 144.652 66.4163C146.14 66.4163 147.424 66.7374 148.57 67.2388L147.95 68.863C146.896 68.406 145.703 68.0614 144.513 68.0614C142.862 68.0614 141.97 68.6332 141.97 69.5472C141.97 70.576 142.773 70.9886 145.133 71.8816C147.471 72.7512 148.821 73.5528 148.821 75.5191C148.819 77.9006 146.917 79.1357 143.914 79.1357Z" fill="#303336"/>
<path d="M156.588 77.19L157.137 78.6314C156.703 78.9056 155.832 79.1354 154.89 79.1354C152.965 79.1354 151.293 78.3128 151.293 75.3386V64.5855L153.31 63.8308V66.6457H156.862V68.202H153.31V75.2942C153.31 76.78 154.113 77.4903 155.235 77.4903C155.696 77.4877 156.313 77.3284 156.588 77.19Z" fill="#303336"/>
<path d="M168 70.5572V78.9079H166.532L166.143 77.1689H166.051C164.973 78.5189 163.99 79.1351 161.926 79.1351C159.703 79.1351 158.052 77.9914 158.052 75.4977C158.052 73.0509 159.93 71.7009 163.943 71.586L166.028 71.5181V70.7869C166.028 68.7502 165.089 68.0634 163.485 68.0634C162.201 68.0634 161.034 68.5204 160.024 69.0009L159.404 67.4915C160.482 66.9197 161.994 66.4392 163.598 66.4392C166.58 66.4392 168 67.6978 168 70.5572ZM164.197 72.9804C161.126 73.0953 160.139 73.9648 160.139 75.5185C160.139 76.8921 161.055 77.5083 162.386 77.5083C164.45 77.5083 166.007 76.3881 166.007 74.0092V72.9099L164.197 72.9804Z" fill="#303336"/>
<path d="M13.5312 97.3305C13.5312 93.1211 15.548 90.9486 18.5954 90.9486C20.4971 90.9486 21.6429 91.7502 22.3988 92.7556H22.5375C22.4904 92.3665 22.3988 91.4055 22.3988 90.9486V86.8306L24.4156 86.0525V103.438H22.7886L22.4904 101.79H22.3988C21.6664 102.843 20.4971 103.665 18.5719 103.665C15.5245 103.668 13.5312 101.54 13.5312 97.3305ZM22.4224 97.7195V97.354C22.4224 94.3119 21.5984 92.6198 18.8701 92.6198C16.6938 92.6198 15.616 94.4738 15.616 97.3775C15.616 100.305 16.6938 101.999 18.8936 101.999C21.4833 101.997 22.4224 100.579 22.4224 97.7195Z" fill="#303336"/>
<path d="M32.1162 103.669C28.8622 103.669 26.4792 101.358 26.4792 97.2867C26.4792 93.2367 28.6555 90.9492 32.1842 90.9492C35.5063 90.9492 37.8448 93.2367 37.8448 97.2867C37.8448 101.358 35.6214 103.669 32.1162 103.669ZM32.1607 101.997C34.6352 101.997 35.7574 100.19 35.7574 97.2841C35.7574 94.3778 34.6352 92.6413 32.1371 92.6413C29.639 92.6413 28.5613 94.3804 28.5613 97.2841C28.564 100.19 29.6652 101.997 32.1607 101.997Z" fill="#303336"/>
<path d="M50.7022 103.668C48.8686 103.668 47.2416 103.394 46.2109 102.89L46.8518 101.198C47.5633 101.519 49.0517 101.884 50.7938 101.884C53.2239 101.884 54.4821 100.879 54.4821 99.2548C54.4821 97.6541 53.5875 96.9673 50.6316 95.8915C47.8353 94.8862 46.415 93.5806 46.415 91.0424C46.415 88.4573 48.5468 86.8801 51.6387 86.8801C53.4253 86.8801 54.9163 87.2457 56.1535 87.7941L55.4891 89.5566C54.3434 89.0762 53.0146 88.6871 51.5942 88.6871C49.5539 88.6871 48.4998 89.648 48.4998 91.0659C48.4998 92.7136 49.4153 93.3769 52.0755 94.3613C54.9634 95.4372 56.5433 96.513 56.5433 99.0746C56.5459 101.976 54.278 103.668 50.7022 103.668Z" fill="#303336"/>
<path d="M68.4634 96.4844V97.696H60.0535C60.1216 100.464 61.521 101.952 63.972 101.952C65.1648 101.952 66.3786 101.723 67.3412 101.357L67.914 102.866C66.6532 103.415 65.5546 103.668 63.8805 103.668C60.3753 103.668 57.9688 101.495 57.9688 97.4009C57.9688 93.3744 60.1451 90.9485 63.3992 90.9485C66.5381 90.9485 68.4634 93.1446 68.4634 96.4844ZM60.098 96.0953H66.355C66.3315 94.0141 65.4159 92.5962 63.3756 92.5962C61.4504 92.5962 60.3047 93.8992 60.098 96.0953ZM66.4675 86.1439C65.8946 86.9899 64.2676 88.7525 63.1899 89.575H61.8611V89.3008C62.5255 88.4548 63.5116 86.9455 64.0374 85.9141H66.4675V86.1439Z" fill="#303336"/>
<path d="M75.9107 101.722L76.46 103.164C76.0258 103.438 75.1548 103.668 74.2131 103.668C72.2878 103.668 70.6163 102.845 70.6163 99.8711V89.1179L72.6331 88.3633V91.1782H76.1854V92.7345H72.6331V99.8267C72.6331 101.312 73.4362 102.023 74.5583 102.023C75.0161 102.02 75.6361 101.861 75.9107 101.722Z" fill="#303336"/>
<path d="M80.928 87.8598C80.928 88.7293 80.3787 89.1419 79.7588 89.1419C79.0944 89.1419 78.566 88.7293 78.566 87.8598C78.566 86.9667 79.0944 86.5776 79.7588 86.5776C80.3787 86.5802 80.928 86.9693 80.928 87.8598ZM80.7449 103.439H78.7282V91.1761H80.7449V103.439Z" fill="#303336"/>
<path d="M101.713 95.4559V103.441H99.7197V95.5499C99.7197 93.6281 98.9166 92.6436 97.2216 92.6436C94.8386 92.6436 93.8995 94.0615 93.8995 96.6702V103.441H91.9063V95.5499C91.9063 93.6281 91.1032 92.6436 89.3847 92.6436C86.9101 92.6436 86.1071 94.2234 86.1071 97.0827V103.444H84.0903V91.1813H85.7173L86.0155 92.8525H86.1306C86.8866 91.5704 88.286 90.9541 89.7509 90.9541C91.629 90.9541 92.9134 91.6174 93.5098 93.0118H93.6249C94.4489 91.6174 95.9634 90.9541 97.5669 90.9541C100.34 90.9489 101.713 92.2989 101.713 95.4559Z" fill="#303336"/>
<path d="M109.552 103.669C106.298 103.669 103.915 101.358 103.915 97.2867C103.915 93.2367 106.091 90.9492 109.62 90.9492C112.942 90.9492 115.281 93.2367 115.281 97.2867C115.281 101.358 113.057 103.669 109.552 103.669ZM109.596 101.997C112.071 101.997 113.193 100.19 113.193 97.2841C113.193 94.3778 112.071 92.6413 109.573 92.6413C107.075 92.6413 105.997 94.3804 105.997 97.2841C106 100.19 107.098 101.997 109.596 101.997Z" fill="#303336"/>
<path d="M128.802 103.438H124.243V87.105H129.284C134.212 87.105 137.351 89.8729 137.351 95.1111C137.348 100.626 134.188 103.438 128.802 103.438ZM128.985 88.8676H126.304V101.678H128.528C132.951 101.678 135.174 99.4823 135.174 95.1816C135.172 90.8339 132.928 88.8676 128.985 88.8676Z" fill="#303336"/>
<path d="M141.978 87.8598C141.978 88.7293 141.429 89.1419 140.809 89.1419C140.145 89.1419 139.616 88.7293 139.616 87.8598C139.616 86.9667 140.145 86.5776 140.809 86.5776C141.429 86.5802 141.978 86.9693 141.978 87.8598ZM141.795 103.439H139.779V91.1761H141.795V103.439Z" fill="#303336"/>
<path d="M153.825 95.0896V103.44H152.357L151.967 101.701H151.876C150.798 103.051 149.815 103.668 147.751 103.668C145.527 103.668 143.877 102.524 143.877 100.03C143.877 97.5834 145.755 96.2334 149.768 96.1185L151.852 96.0506V95.3194C151.852 93.2826 150.913 92.5959 149.31 92.5959C148.025 92.5959 146.859 93.0529 145.849 93.5333L145.229 92.024C146.307 91.4522 147.819 90.9717 149.422 90.9717C152.404 90.9717 153.825 92.2303 153.825 95.0896ZM150.021 97.5129C146.95 97.6278 145.964 98.4973 145.964 100.051C145.964 101.425 146.88 102.041 148.211 102.041C150.275 102.041 151.831 100.921 151.831 98.5417V97.4424L150.021 97.5129Z" fill="#303336"/>
<path d="M154.306 87.8153C154.306 86.9222 154.926 86.2825 155.818 86.2825C156.666 86.2825 157.33 86.9222 157.33 87.8153C157.33 88.6848 156.689 89.3246 155.818 89.3246C154.926 89.3246 154.306 88.6848 154.306 87.8153ZM157.103 87.8153C157.103 87.105 156.577 86.5123 155.818 86.5123C155.062 86.5123 154.534 87.0606 154.534 87.8153C154.534 88.5255 155.062 89.0974 155.818 89.0974C156.53 89.0948 157.103 88.5699 157.103 87.8153ZM155.248 86.8987H155.777C156.234 86.8987 156.441 87.0815 156.441 87.4471C156.441 87.6978 156.281 87.8362 156.119 87.9041L156.6 88.7057H156.234L155.821 87.9954H155.57V88.7057H155.248V86.8987ZM155.774 87.7448C155.981 87.7448 156.117 87.6299 156.117 87.4471C156.117 87.2643 156.001 87.1729 155.774 87.1729H155.567V87.7448H155.774Z" fill="#303336"/>
<path d="M89.5076 31.4493C87.054 33.8987 85.869 35.0633 85.2569 38.0323C85.2099 38.2542 84.9561 38.2542 84.9561 38.0323V34.3948C84.9561 32.0629 87.0383 29.9295 89.5155 27.4567L91.5087 25.4669C94.3024 22.6781 94.9746 19.448 92.7538 17.5287C92.5681 17.3668 92.6649 17.171 92.9082 17.2806C95.6783 18.5419 97.8599 23.1168 93.1122 27.8562L89.5076 31.4493ZM84.9457 40.7976V44.4586C84.9457 44.6805 85.1994 44.6805 85.2465 44.4586C85.8586 41.4896 87.0461 40.3015 89.4972 37.8521L93.3816 33.9822C98.1293 29.2428 98.9507 24.6574 96.5363 21.7093C96.3741 21.5135 96.2015 21.631 96.3061 21.8686C97.9017 25.4747 94.0748 29.2976 92.2516 31.1177L89.505 33.8595C87.0252 36.335 84.9457 38.4657 84.9457 40.7976ZM74.4144 29.0182C69.6668 33.7576 71.851 38.3352 74.6185 39.5938C74.8617 39.7035 74.9585 39.5076 74.7728 39.3457C72.552 37.4265 73.2269 34.1963 76.0179 31.4075L83.9072 23.5294C86.387 21.0539 88.4665 18.9231 88.4665 16.5913V12.9564C88.4665 12.7344 88.2128 12.7344 88.1657 12.9564C87.5536 15.9254 86.366 17.09 83.915 19.5394L74.4144 29.0182ZM88.4796 10.1911V6.52748C88.4796 6.30553 88.2259 6.30553 88.1788 6.52748C87.5667 9.49648 86.3791 10.6846 83.9281 13.134L74.145 22.8922C69.3973 27.6316 68.576 32.217 70.9904 35.1651C71.1525 35.361 71.3252 35.2435 71.2205 35.0058C69.6249 31.3997 73.4518 27.5768 75.275 25.7568L83.9203 17.1292C86.3974 14.6537 88.4796 12.5229 88.4796 10.1911ZM73.117 17.5391C69.0337 21.6153 68.4635 25.9265 69.3372 28.7388C69.4104 28.9764 69.6197 28.9947 69.6171 28.744C69.5961 26.3809 70.2762 24.3493 74.5975 20.0381L83.9124 10.742C86.3922 8.26658 88.4718 6.1358 88.4718 3.80395V0.166467C88.4718 -0.0554892 88.218 -0.0554892 88.1709 0.166467C87.5588 3.13546 86.3687 4.30531 83.915 6.75466L73.117 17.5391ZM78.8247 47.0411C78.7436 47.0411 78.6756 46.9758 78.6756 46.8923V44.7824C78.6756 44.7014 78.7436 44.6335 78.8247 44.6335H82.4005C82.4816 44.6335 82.5496 44.5682 82.5496 44.4847C82.5391 42.5889 81.1083 41.3016 75.3718 42.2965L62.986 44.422C62.986 44.422 53.5534 53.8382 53.475 53.9296C53.3468 54.0837 53.4462 54.2795 53.645 54.2612C53.8176 54.2456 74.2523 50.7204 74.2523 50.7204C78.9424 49.9318 81.5006 52.1592 82.2645 54.2456C82.3325 54.431 82.5522 54.4022 82.5522 54.2273C82.5522 54.0993 82.5522 47.1873 82.5522 47.1873C82.5522 47.1064 82.4868 47.0385 82.4031 47.0385H78.8247V47.0411ZM93.6092 42.5497L89.5128 46.6416C87.0331 49.117 84.9535 51.2478 84.9535 53.5797L84.9561 54.2299C84.9561 54.4075 85.1758 54.4336 85.2439 54.2482C86.0103 52.1618 88.5659 49.9318 93.2561 50.723C93.2561 50.723 113.691 54.2482 113.863 54.2638C114.062 54.2821 114.162 54.0863 114.033 53.9322C113.955 53.8408 104.522 44.4246 104.522 44.4246L93.6092 42.5497ZM98.1921 28.1356C98.1188 27.898 97.9096 27.8797 97.9122 28.1304C97.9331 30.4936 97.253 32.5251 92.9317 36.8363L89.5128 40.2466C87.9564 41.8003 86.5596 43.2182 85.733 44.6335H89.1074C89.2356 44.503 89.369 44.3724 89.5076 44.234L94.4096 39.3353C98.4929 35.2591 99.0631 30.9479 98.1921 28.1356ZM84.9535 50.8222C84.9535 51.0442 85.2072 51.0442 85.2543 50.8222C85.5918 49.1876 86.1045 48.0987 86.9075 47.0411H85.1052C85.0241 47.0411 84.9561 47.1064 84.9561 47.1899V50.8222H84.9535Z" fill="#303336"/>
<path d="M111.053 47.3778C111.053 46.4978 111.692 45.8633 112.571 45.8633C113.41 45.8633 114.088 46.5004 114.088 47.3778C114.088 48.2578 113.449 48.8923 112.571 48.8923C111.692 48.8923 111.053 48.2578 111.053 47.3778ZM113.855 47.3778C113.855 46.6623 113.321 46.08 112.573 46.08C111.825 46.08 111.286 46.6205 111.286 47.3778C111.286 48.0933 111.825 48.6756 112.573 48.6756C113.279 48.6756 113.855 48.1325 113.855 47.3778ZM112.006 46.4769H112.534C112.984 46.4769 113.188 46.6545 113.188 47.0096C113.188 47.2707 113.031 47.4144 112.866 47.4796L113.345 48.2813H112.989L112.576 47.5658H112.319V48.2813H112.006V46.4769ZM112.526 47.3125C112.741 47.3125 112.869 47.1924 112.869 47.0201C112.869 46.8268 112.762 46.7433 112.521 46.7433H112.317V47.3125H112.526Z" fill="#303336"/>
</svg>
